<svg id="Layer_1" data-name="Layer 1" xmlns="http://www.w3.org/2000/svg" viewBox="0 0 282.88 29.2"><defs><style>.cls-1{fill:#ff8200;}</style></defs><title>Vivint Smart Home Logo_2018_registered_012618</title><g id="_Group_" data-name="&lt;Group&gt;"><path id="_Compound_Path_" data-name="&lt;Compound Path&gt;" class="cls-1" d="M16.36,9.52h6.79L15,28.05h-6L.82,9.52H7.68L12,20.37ZM30.94,4.11a3.52,3.52,0,0,1-3.47,3.5,3.45,3.45,0,0,1-3.39-3.5A3.36,3.36,0,0,1,27.47.72,3.42,3.42,0,0,1,30.94,4.11ZM24.23,9.52h6.53V28.05H24.23Zm23.19,0h6.75L46.08,28.05H40L31.91,9.52h6.82l4.33,10.85ZM62,4.11a3.52,3.52,0,0,1-3.47,3.5,3.45,3.45,0,0,1-3.39-3.5A3.36,3.36,0,0,1,58.53.72,3.42,3.42,0,0,1,62,4.11ZM55.29,9.52h6.56V28.05H55.29Zm29.57,6.9V28.05H78.33V18A3.2,3.2,0,0,0,75,14.55c-1.6,0-3.54.86-3.54,4v9.47H64.91V9.52h6.56v2.42h.15A8,8,0,0,1,78,9.11C82.4,9.11,84.86,12.43,84.86,16.42Zm11.33-6.9h3.24v5.41H96.19V28.05H89.63V14.93H86.42V9.52h3.21V3.7h6.56ZM106.26,24.7a3.42,3.42,0,0,1-3.43,3.43,3.41,3.41,0,1,1,3.43-3.43Z"/></g><path class="cls-1" d="M121.82,11A4.84,4.84,0,0,0,117,7.14c-2.45,0-4.36,2-4.36,3.72a3.28,3.28,0,0,0,2.92,3.27l3.46.74c4,.94,6.16,3,6.16,6.63s-2.5,7-8.15,7-8.28-3.83-8.85-7l3.3-1A5.79,5.79,0,0,0,117,25.34c3.07,0,4.63-1.75,4.63-3.57,0-1.54-1.24-3-3.38-3.48l-3.32-.72c-3.15-.61-5.79-3.31-5.79-6.46,0-3.68,3.45-7,7.8-7,5.22,0,7.45,3.44,8,5.87Z"/><path class="cls-1" d="M157.43,19.91c0,3.21,1.89,5.58,4.56,5.58,3,0,4.48-2.69,4.48-5.58,0-3.19-1.93-5.37-4.46-5.37S157.43,16.67,157.43,19.91Zm4.19-8.31c2.72,0,4.57,1.71,4.81,2.61,0,0,0-2.17,0-2.17h3.28V25c0,1.13.14,2.78.16,2.94h-3.14a11,11,0,0,1-.25-2.31c-.7,1.68-2.51,2.74-4.85,2.74-4.76,0-7.6-3.52-7.6-8.51S157.28,11.6,161.62,11.6Z"/><path class="cls-1" d="M172.56,12h3.27v2.69a4.79,4.79,0,0,1,4.68-2.93,6.33,6.33,0,0,1,1.06.1v3.52a5.84,5.84,0,0,0-1.27-.11c-3.08,0-4.4,1.93-4.4,4.83V28h-3.35Z"/><path class="cls-1" d="M188.72,12h3.4v3h-3.4v8A2,2,0,0,0,191,25.13a6.54,6.54,0,0,0,1.13-.1v2.82a5.23,5.23,0,0,1-2.19.32c-2.79,0-4.56-1.49-4.56-4.61V15h-3V12h.85c2,0,2.45-1.06,2.45-2.46V7.06h3Z"/><polygon class="cls-1" points="209.91 27.99 209.91 17.72 198.27 17.72 198.27 27.99 194.79 27.99 194.79 4.58 198.27 4.58 198.27 14.47 209.91 14.47 209.91 4.58 213.39 4.58 213.39 27.99 209.91 27.99"/><path class="cls-1" d="M235.22,28V12h3.2v2.09a6,6,0,0,1,4.8-2.55A5.45,5.45,0,0,1,248,14.53a5.93,5.93,0,0,1,5.28-2.95c2.9,0,5.55,1.86,5.55,6.06V28h-3.28V18.07c0-2-1-3.52-3.28-3.52a3.67,3.67,0,0,0-3.55,3.85V28h-3.32V18.07a3.44,3.44,0,0,0-3.28-3.52,3.75,3.75,0,0,0-3.58,3.87V28Z"/><path class="cls-1" d="M127.79,28V12H131v2.09a6,6,0,0,1,4.8-2.55,5.48,5.48,0,0,1,4.78,2.95,6.21,6.21,0,0,1,5.28-2.95c2.9,0,5.55,1.86,5.55,6.06V28h-3.28V18.07c0-2-1-3.52-3.28-3.52a3.67,3.67,0,0,0-3.55,3.85V28H138V18.07a3.44,3.44,0,0,0-3.28-3.52,3.75,3.75,0,0,0-3.58,3.87V28Z"/><path class="cls-1" d="M264.63,18.34h8.42a4,4,0,0,0-4.23-3.91A4.12,4.12,0,0,0,264.63,18.34Zm11.73,5.11a7,7,0,0,1-7.18,5c-4.13,0-8.07-3-8.07-8.53,0-4.74,3.14-8.42,7.7-8.42,5.37,0,7.67,3.39,7.67,8.35a6.85,6.85,0,0,1-.08,1.07H264.53a4.85,4.85,0,0,0,4.66,4.61,4.35,4.35,0,0,0,4.31-3.07Z"/><path class="cls-1" d="M224.46,25.48c2.79,0,4.8-2.49,4.8-5.49,0-3.28-2.15-5.45-4.8-5.45s-4.8,2.42-4.8,5.45C219.67,22.75,221.7,25.48,224.46,25.48Zm0-13.94c5,0,8.2,3.52,8.2,8.45,0,5.23-3.35,8.48-8.2,8.48-4.66,0-8.19-3.12-8.19-8.48A8.08,8.08,0,0,1,224.46,11.54Z"/><path class="cls-1" d="M279.89,11.54a2.19,2.19,0,1,1-2.16,2.19A2.17,2.17,0,0,1,279.89,11.54Zm0,4.09a1.91,1.91,0,1,0-1.85-1.9A1.87,1.87,0,0,0,279.89,15.63Zm-.37-.72h-.29V12.53H280a.71.71,0,0,1,.75.71.68.68,0,0,1-.56.68l.56,1h-.34l-.55-1h-.36Zm.44-1.21a.46.46,0,1,0,0-.91h-.44v.91Z"/></svg>